<svg width="24" height="24" viewBox="0 0 24 24" fill="none" xmlns="http://www.w3.org/2000/svg">
<g clip-path="url(#clip0_11_1650)">
<path d="M12.7143 1.34944C12.3061 0.989396 11.6938 0.989396 11.2855 1.34944L0.388463 10.9607C0.156925 11.1649 0.0238539 11.4584 0.0228593 11.7671L0.00342369 17.8003C0.00149781 18.3981 0.485591 18.8837 1.08342 18.8837H8.0081V17.4503C8.0081 15.5103 9.79585 13.9367 11.9999 13.9367C14.204 13.9367 15.9918 15.5103 15.9918 17.4503V18.8837H22.9164C23.5143 18.8837 23.9984 18.3981 23.9964 17.8003L23.977 11.7671C23.976 11.4584 23.8429 11.1649 23.6114 10.9607L12.7143 1.34944Z" fill="#328CFF"/>
<path d="M22.7041 21.1564C23.4198 21.1565 24 21.7366 24 22.4523V22.7111C24 23.4269 23.4198 24.008 22.7041 24.008H1.2959C0.580184 24.008 0 23.4269 0 22.7111V22.4523C0 21.7366 0.580184 21.1565 1.2959 21.1564H22.7041ZM11.2852 0.269728C11.6934 -0.0903162 12.3066 -0.0903162 12.7148 0.269728L23.6113 9.88106C23.8429 10.0854 23.9757 10.3789 23.9766 10.6877L23.9971 17.9211C23.9987 18.5187 23.5146 19.0041 22.917 19.0041H15.9922V16.3703C15.992 14.4305 14.2039 12.8566 12 12.8566C9.79606 12.8566 8.00805 14.4305 8.00781 16.3703V19.0041H1.08301C0.485366 19.0041 0.00126688 18.5187 0.00292969 17.9211L0.0234375 10.6877C0.0243273 10.3789 0.157125 10.0854 0.388672 9.88106L11.2852 0.269728Z" fill="white"/>
</g>
<defs>
<clipPath id="clip0_11_1650">
<rect width="24" height="24" fill="white"/>
</clipPath>
</defs>
</svg>
