<svg width="206" height="52" viewBox="0 0 206 52" fill="none" xmlns="http://www.w3.org/2000/svg">
<path d="M26.2676 10.6417C30.8476 11.4499 32.3293 13.5379 32.3293 16.5014C32.3293 18.8587 31.319 22.5631 29.0964 26.1328C28.0187 25.9981 26.8738 25.9307 25.8635 25.9307C24.7185 25.9307 23.7755 25.9981 23.0347 26.1328C24.0449 22.3611 25.1226 17.4443 26.2676 10.6417ZM18.522 10.7091C17.1749 19.7343 13.942 31.6557 10.5744 38.7951C5.32086 39.2666 2.96352 39.9401 2.96352 42.4995C2.96352 46.6754 5.65762 49.3021 7.34143 49.3021C8.9579 49.3021 10.3723 48.3592 13.2011 46.0692C19.869 50.4471 24.0449 51.7268 28.7596 51.7268C38.5258 51.7268 43.2404 46.5406 43.2404 39.4013C43.2404 36.4378 41.6913 31.4537 35.0234 27.9513C40.1422 22.9672 43.1057 17.377 43.1057 13.0664C43.1057 5.38821 37.5828 0 24.3817 0C9.90083 0 0 7.13937 0 14.6829C0 17.1076 1.07764 18.6567 2.89616 18.6567C3.43498 18.6567 4.04116 18.522 4.44527 18.3199C6.93732 13.3358 12.6623 11.4499 18.522 10.7091ZM30.3761 43.7792C27.8167 43.7792 22.4958 42.0954 17.1749 40.2769C19.2628 37.3133 20.6773 34.1478 21.6203 30.8475C30.4434 34.6192 33.407 37.448 33.407 40.9504C33.407 42.7015 32.0599 43.7792 30.3761 43.7792ZM95.6022 20.9467C94.3225 20.9467 93.2449 21.3508 92.3019 22.4958C92.2346 21.2161 91.2917 19.667 89.1364 19.667C86.8464 19.667 83.8155 21.2834 79.9764 24.3143C77.8885 24.6511 74.4535 25.1225 71.9615 25.4593C71.9615 21.8222 70.6818 20.2731 68.3918 20.2731C66.9774 20.2731 65.6303 20.9467 64.5527 22.4958C64.4853 20.3405 62.4647 19.5323 60.7809 19.5323C53.6416 19.5323 46.3675 29.5004 46.3675 40.681C46.3675 47.2815 50.1392 50.4471 54.9213 50.4471C63.3403 50.4471 69.2 39.9401 71.0185 31.3863C71.0185 31.3863 73.3085 31.1843 76.0026 30.9148C74.7903 33.8784 74.1167 37.246 74.1167 40.681C74.1167 47.2815 77.8885 50.4471 82.6705 50.4471C87.3852 50.4471 90.9549 48.0224 94.1878 43.6445C94.9287 44.116 95.6696 44.318 96.8819 44.318C102.607 44.318 107.12 37.9869 107.12 35.1581C107.12 33.7436 105.705 32.7334 104.493 32.7334C102.27 36.303 100.317 37.8522 98.3637 37.8522C97.6901 37.8522 97.2187 37.5828 97.0166 37.3807C98.4984 33.6763 99.7107 28.6922 99.7107 25.4593C99.7107 22.8325 98.3637 20.9467 95.6022 20.9467ZM55.9315 38.6604C55.9315 33.4069 59.2992 26.2675 63.273 24.5163C62.4647 25.796 62.1953 27.0757 62.1953 28.1534C62.1953 29.7698 62.8689 31.0496 63.8118 31.3863C62.9362 37.0439 60.7809 42.7689 58.2889 42.7689C57.2112 42.7689 55.9315 41.826 55.9315 38.6604ZM83.6808 38.1889C83.6808 35.2254 84.489 31.3863 86.0382 28.8269C87.7893 28.1534 89.6078 27.0084 90.6181 25.6613C89.6752 28.0187 88.9343 31.3863 88.9343 33.4742C88.9343 35.5622 89.2711 38.1216 90.012 39.6707C89.069 41.1524 87.722 42.4321 86.1055 42.4321C84.8932 42.4321 83.6808 41.4892 83.6808 38.1889ZM104.036 35.8989C102.352 38.7951 101.814 41.2198 101.814 43.3077C101.881 46.8101 104.777 50.3797 108.684 50.3797C110.233 50.3797 111.512 49.9083 112.253 49.1C112.321 43.3751 112.455 40.4789 112.725 37.448L115.756 36.2357C115.553 37.7175 115.419 39.4686 115.419 41.1524C115.419 48.6959 117.103 51.5921 121.413 51.5921C127.61 51.5921 137.982 38.9972 137.982 35.0907C137.982 33.7437 136.635 33.0028 135.355 33.0028C130.64 39.8054 127.946 42.7015 126.195 42.7015C124.579 42.7015 123.905 40.2095 123.905 32.9354C130.843 29.5004 131.651 28.8269 131.651 25.7287C131.651 23.1693 130.102 20.4752 126.801 20.4752C124.983 20.4752 123.03 21.8222 119.999 25.9981C119.123 27.2104 118.315 28.6922 117.641 30.1066L113.129 31.9925C113.533 29.0963 115.015 24.7184 116.496 21.7549C121.413 12.1908 122.895 8.41908 122.895 5.45556C122.895 2.02058 121.076 0.673527 118.18 0.673527C109.761 0.673527 106.865 10.7091 104.036 35.8989ZM135.28 30.5107C134.742 33.3395 132.586 41.1524 132.586 45.6651C132.586 49.1674 134.001 50.8512 137.907 50.8512C144.71 50.8512 155.621 40.2769 155.621 35.1581C155.621 33.811 154.341 32.8681 153.061 32.8681C149.559 38.3236 145.585 42.1627 143.497 42.1627C142.891 42.1627 142.554 41.8933 142.554 41.1524C142.554 39.4686 145.72 27.7493 147.539 21.2161C152.59 11.7194 153.937 8.41908 153.937 5.45556C153.937 2.02058 152.118 0.673527 149.222 0.673527C143.901 0.673527 139.119 6.12909 137.907 15.2217C137.301 19.8017 136.089 26.1328 135.28 30.5107ZM164.832 27.9513C164.832 29.9719 164.024 32.0598 160.252 32.7334C160.724 28.0187 162.542 25.7287 163.485 25.7287C164.293 25.7287 164.832 26.5369 164.832 27.9513ZM159.983 50.5818C168.739 50.5818 179.987 39.8727 179.987 34.8886C179.987 33.811 179.044 32.7334 177.427 32.666C173.588 38.5257 167.661 42.4321 163.081 42.4321C160.454 42.4321 159.848 40.7483 159.848 37.7175C169.075 35.6295 172.376 31.2516 172.376 25.594C172.376 20.8793 169.816 18.6567 165.169 18.6567C158.636 18.6567 150.351 29.029 150.351 39.1992C150.351 46.4733 153.382 50.5818 159.983 50.5818ZM191.664 24.2469C190.519 23.9102 189.239 23.4387 188.498 23.0346C189.374 21.5528 190.788 20.5425 192.405 19.667C192.539 19.2628 192.607 18.7914 192.607 18.3199C192.607 16.5014 191.058 15.4237 188.768 15.4237C184.996 15.4237 177.924 22.0917 177.924 26.8063C177.924 28.086 178.395 28.9616 178.934 29.5678C177.789 32.3292 176.51 34.0131 174.758 36.5051C174.422 36.9766 174.287 37.5828 174.287 38.1216C174.287 39.536 175.297 40.7483 176.981 40.7483C179.204 38.2563 180.753 35.8989 182.841 31.9251C184.322 32.5313 185.063 32.9354 185.063 33.7436C185.063 35.4948 181.763 41.2198 181.763 45.6651C181.763 49.5042 184.053 51.3227 188.162 51.3227C194.358 51.3227 205.875 39.3339 205.875 35.0907C205.875 34.0804 204.73 33.0028 203.046 33.0028C199.477 38.593 194.762 42.7689 192.876 42.7689C192.001 42.7689 191.731 42.0954 191.731 41.1524C191.731 39.4686 193.078 36.1683 194.627 33.0701C195.705 30.9148 196.446 29.2984 196.446 27.9513C196.446 26.3349 195.638 25.3919 191.664 24.2469Z" fill="#0A67D8"/>
</svg>
